<?xml version="1.0" standalone="no"?>
<!DOCTYPE svg PUBLIC "-//W3C//DTD SVG 20010904//EN"
 "http://www.w3.org/TR/2001/REC-SVG-20010904/DTD/svg10.dtd">
<svg version="1.0" xmlns="http://www.w3.org/2000/svg"
 width="909.000000pt" height="805.000000pt" viewBox="0 0 909.000000 805.000000"
 preserveAspectRatio="xMidYMid meet">

<g transform="translate(0.000000,805.000000) scale(0.100000,-0.100000)"
fill="#000000" stroke="none">
<path d="M4347 7384 c-36 -367 -64 -671 -61 -675 2 -5 325 -277 717 -605 392
-328 723 -607 736 -619 l23 -23 -48 -156 -49 -156 -190 0 c-104 0 -355 -3
-557 -7 l-368 -6 0 -554 0 -553 -38 0 c-21 0 -454 7 -961 15 -508 9 -924 15
-926 13 -1 -2 -136 -406 -300 -898 -164 -492 -302 -900 -307 -906 -6 -8 392
-357 1274 -1115 1377 -1185 1327 -1143 1333 -1137 2 2 38 303 79 668 l76 665
-27 24 c-16 13 -344 296 -730 629 -387 332 -703 607 -702 611 0 3 24 74 52
156 l52 150 551 -4 552 -4 6 174 c3 96 8 349 11 564 4 214 7 390 8 390 1 0
434 -2 962 -5 528 -3 962 -4 964 -3 2 1 133 411 292 910 l288 908 -22 22 c-38
37 -2610 2193 -2617 2193 -3 0 -36 -300 -73 -666z m1446 -494 l1245 -1045 -41
-6 c-23 -4 -109 -9 -192 -13 l-150 -6 -1060 893 c-583 492 -1061 894 -1062
893 -6 -5 -72 -710 -67 -717 3 -5 313 -268 690 -585 376 -317 684 -581 684
-587 0 -16 -70 -237 -75 -237 -4 0 -1432 1195 -1462 1224 -10 9 1 147 52 656
36 355 65 653 65 663 0 14 15 6 64 -35 35 -29 624 -523 1309 -1098z m1247
-1067 c1 -15 -564 -1793 -570 -1793 -3 0 -49 118 -103 263 l-98 262 191 624
c104 344 191 626 193 627 2 2 239 17 355 23 17 0 32 -2 32 -6z m-1131 -153
l48 -41 -72 -237 -72 -237 -66 -3 c-37 -2 -67 1 -67 6 0 6 34 117 76 248 41
132 80 254 85 272 6 17 13 32 15 32 3 0 27 -18 53 -40z m455 -1396 c47 -126
86 -233 86 -237 0 -4 -424 -6 -942 -5 l-943 3 -3 221 -2 221 670 8 c374 4 670
11 670 16 0 5 78 9 174 9 119 0 177 4 182 11 9 16 9 16 108 -247z m-2784 -239
c465 -8 871 -15 903 -15 l57 0 0 -108 c0 -60 -3 -163 -6 -228 l-7 -120 -681 1
c-375 0 -758 -3 -851 -8 l-170 -8 -88 243 c-48 134 -87 246 -87 251 0 9 -77 9
930 -8z m-850 -252 l90 -251 -200 -628 c-110 -345 -202 -629 -205 -633 -7 -7
-366 -23 -373 -17 -3 4 544 1672 579 1763 5 14 12 24 14 21 3 -2 45 -117 95
-255z m680 -881 c0 -11 -179 -544 -184 -550 -3 -2 -29 16 -59 42 l-54 46 48
153 c27 83 61 189 75 235 l25 82 75 0 c41 0 74 -3 74 -8z m640 -951 c393 -338
716 -615 717 -616 3 -2 -146 -1318 -150 -1321 -1 -1 -583 499 -1293 1110
l-1291 1111 81 7 c44 4 130 8 191 10 l109 3 1051 -906 c577 -499 1051 -905
1052 -905 1 1 21 162 43 356 l40 355 -27 26 c-16 14 -322 279 -680 588 -359
309 -653 567 -653 573 0 32 75 236 84 230 6 -3 333 -283 726 -621z"/>
<path d="M2092 5552 c-1150 -592 -2092 -1079 -2092 -1083 0 -4 269 -232 597
-508 l597 -501 70 39 c214 117 4011 2213 4013 2215 3 2 -1078 910 -1086 913
-3 1 -948 -483 -2099 -1075z m2646 604 c288 -241 522 -440 520 -441 -6 -6
-4049 -2235 -4057 -2238 -10 -2 -1175 973 -1180 987 -2 6 935 492 2080 1081
1649 848 2087 1070 2099 1061 8 -6 250 -208 538 -450z"/>
<path d="M2319 5417 c-1031 -540 -1901 -996 -1931 -1012 l-57 -30 419 -343
420 -342 1885 1049 c1037 577 1887 1051 1888 1054 2 5 -736 607 -743 606 -3
-1 -849 -443 -1881 -982z"/>
<path d="M5858 3442 c-1127 -603 -2048 -1100 -2048 -1104 0 -4 231 -206 513
-449 281 -243 521 -450 533 -461 20 -18 42 -8 2127 1031 1159 577 2107 1053
2106 1058 0 8 -1165 1016 -1178 1020 -3 1 -927 -492 -2053 -1095z m2651 568
l573 -495 -1793 -893 c-987 -492 -1933 -963 -2104 -1046 l-310 -152 -523 452
c-288 249 -524 455 -525 459 -1 4 916 498 2038 1099 1635 875 2043 1090 2056
1082 9 -6 273 -234 588 -506z"/>
<path d="M6060 3299 c-1020 -550 -1874 -1010 -1897 -1022 l-43 -22 369 -307
369 -308 1818 919 c1001 505 1877 947 1947 982 l128 65 -415 347 c-228 191
-417 347 -418 346 -2 0 -838 -450 -1858 -1000z"/>
</g>
</svg>
